<?xml version="1.0" encoding="UTF-8" standalone="no"?>
<!DOCTYPE svg PUBLIC "-//W3C//DTD SVG 1.1//EN" "http://www.w3.org/Graphics/SVG/1.1/DTD/svg11.dtd">
<svg width="100%" height="100%" viewBox="0 0 66 83" version="1.1" xmlns="http://www.w3.org/2000/svg" xmlns:xlink="http://www.w3.org/1999/xlink" xml:space="preserve" xmlns:serif="http://www.serif.com/" style="fill-rule:evenodd;clip-rule:evenodd;stroke-linejoin:round;stroke-miterlimit:2;">
    <g transform="matrix(1,0,0,1,-4809,-683)">
        <g transform="matrix(0.69193,0,0,0.584715,3943.68,-4251.87)">
            <g id="icon-file" transform="matrix(1.44523,0,0,1.71023,1237.65,8571.47)">
                <path d="M22.022,5.908L62.5,5.908C70.703,5.908 74.805,1.758 74.805,-6.543L74.805,-40.43L46.875,-40.43C41.699,-40.43 39.258,-42.871 39.258,-48.047L39.258,-76.416L22.022,-76.416C13.818,-76.416 9.766,-72.266 9.766,-63.965L9.766,-6.543C9.766,1.807 13.818,5.908 22.022,5.908ZM46.875,-46.143L74.365,-46.143C74.121,-47.949 72.9,-49.658 70.85,-51.758L50.586,-72.461C48.584,-74.512 46.777,-75.781 44.971,-76.074L44.971,-48.047C44.971,-46.777 45.654,-46.143 46.875,-46.143ZM27.49,-9.082C25.781,-9.082 24.561,-10.303 24.561,-11.914C24.561,-13.477 25.781,-14.746 27.49,-14.746L57.129,-14.746C58.789,-14.746 60.059,-13.477 60.059,-11.914C60.059,-10.303 58.789,-9.082 57.129,-9.082L27.49,-9.082ZM27.49,-23.779C25.781,-23.779 24.561,-25 24.561,-26.563C24.561,-28.174 25.781,-29.395 27.49,-29.395L57.129,-29.395C58.789,-29.395 60.059,-28.174 60.059,-26.563C60.059,-25 58.789,-23.779 57.129,-23.779L27.49,-23.779Z" style="fill-rule:nonzero;"/>
            </g>
        </g>
    </g>
</svg>
