<?xml version="1.0" encoding="UTF-8" standalone="no"?>
<!DOCTYPE svg PUBLIC "-//W3C//DTD SVG 1.1//EN" "http://www.w3.org/Graphics/SVG/1.1/DTD/svg11.dtd">
<svg width="100%" height="100%" viewBox="0 0 83 83" version="1.1" xmlns="http://www.w3.org/2000/svg" xmlns:xlink="http://www.w3.org/1999/xlink" xml:space="preserve" xmlns:serif="http://www.serif.com/" style="fill-rule:evenodd;clip-rule:evenodd;stroke-linejoin:round;stroke-miterlimit:2;">
    <g transform="matrix(1,0,0,1,-2622,-18179)">
        <g transform="matrix(0.592507,0,0,1.23578,1356.86,8434.87)">
            <g id="icon-link" transform="matrix(1.68774,0,0,0.809203,2121.08,7947.2)">
                <path d="M48.145,-19.58L53.857,-25.391C49.268,-26.025 46.289,-27.49 44.092,-29.736C37.549,-36.279 37.549,-45.459 43.994,-51.904L56.494,-64.404C62.988,-70.898 72.168,-70.947 78.711,-64.404C85.254,-57.813 85.205,-48.633 78.76,-42.188L72.168,-35.596C73.389,-32.764 73.682,-29.541 73.34,-26.807L84.033,-37.5C93.457,-46.924 93.506,-60.205 83.984,-69.678C74.512,-79.199 61.182,-79.15 51.807,-69.727L38.721,-56.592C29.346,-47.217 29.248,-33.936 38.77,-24.414C40.918,-22.266 43.701,-20.654 48.145,-19.58ZM51.758,-51.563L45.996,-45.703C50.586,-45.068 53.565,-43.603 55.811,-41.357C62.353,-34.815 62.353,-25.635 55.908,-19.19L43.408,-6.689C36.914,-0.195 27.734,-0.195 21.191,-6.689C14.6,-13.281 14.648,-22.461 21.143,-28.906L27.734,-35.498C26.514,-38.33 26.221,-41.553 26.563,-44.287L15.869,-33.594C6.445,-24.219 6.396,-10.889 15.918,-1.416C25.391,8.105 38.672,8.057 48.096,-1.367L61.182,-14.502C70.557,-23.877 70.606,-37.158 61.133,-46.68C58.984,-48.828 56.201,-50.44 51.758,-51.563Z" style="fill-rule:nonzero;"/>
            </g>
        </g>
    </g>
</svg>
