<?xml version="1.0" encoding="UTF-8" standalone="no"?>
<!DOCTYPE svg PUBLIC "-//W3C//DTD SVG 1.1//EN" "http://www.w3.org/Graphics/SVG/1.1/DTD/svg11.dtd">
<svg width="100%" height="100%" viewBox="0 0 79 80" version="1.1" xmlns="http://www.w3.org/2000/svg" xmlns:xlink="http://www.w3.org/1999/xlink" xml:space="preserve" xmlns:serif="http://www.serif.com/" style="fill-rule:evenodd;clip-rule:evenodd;stroke-linejoin:round;stroke-miterlimit:2;">
    <g transform="matrix(1,0,0,1,-4404,-259)">
        <g transform="matrix(0.641337,0,0,0.469972,3942.38,-3493.85)">
            <g transform="matrix(1.55924,0,0,2.12779,-6147.13,7434.16)">
                <g id="icon-check">
                    <path d="M4443.55,338.518C4465.08,338.518 4483,320.647 4483,299.114C4483,277.581 4465.03,259.71 4443.5,259.71C4422.01,259.71 4404.14,277.581 4404.14,299.114C4404.14,320.647 4422.06,338.518 4443.55,338.518ZM4439.25,317.913C4437.74,317.913 4436.52,317.327 4435.34,315.764L4426.26,304.387C4425.58,303.557 4425.24,302.581 4425.24,301.604C4425.24,299.602 4426.7,297.991 4428.75,297.991C4429.97,297.991 4430.95,298.382 4432.02,299.846L4439.06,309.221L4454.63,284.026C4455.41,282.659 4456.53,281.975 4457.71,281.975C4459.66,281.975 4461.42,283.245 4461.42,285.345C4461.42,286.321 4460.88,287.346 4460.3,288.225L4442.91,315.764C4441.98,317.229 4440.72,317.913 4439.25,317.913Z" style="fill-rule:nonzero;"/>
                </g>
            </g>
        </g>
    </g>
</svg>
