<?xml version="1.0" encoding="UTF-8" standalone="no"?>
<!DOCTYPE svg PUBLIC "-//W3C//DTD SVG 1.1//EN" "http://www.w3.org/Graphics/SVG/1.1/DTD/svg11.dtd">
<svg width="100%" height="100%" viewBox="0 0 1021 131" version="1.1" xmlns="http://www.w3.org/2000/svg" xmlns:xlink="http://www.w3.org/1999/xlink" xml:space="preserve" xmlns:serif="http://www.serif.com/" style="fill-rule:evenodd;clip-rule:evenodd;stroke-linejoin:round;stroke-miterlimit:2;">
    <g transform="matrix(1,0,0,1,-11047,-10150)">
        <g transform="matrix(1.30552,0,0,1.07514,10113.4,690.24)">
            <g id="supernova-logo">
                <g transform="matrix(1.00537,0,0,1.00537,-4.50558,-46.5277)">
                    <g transform="matrix(2.7279,0,0,3.31244,-18213.4,6124.19)">
                        <path d="M7115.23,843.084L7095.53,822.634L7095.53,843.084L7088.53,843.084L7088.53,808.034L7090.73,808.034L7110.08,827.634L7110.08,808.034L7117.08,808.034L7117.08,843.084L7115.23,843.084Z" style="fill-rule:nonzero;"/>
                    </g>
                    <g transform="matrix(2.7279,0,0,3.31244,-18213.4,6124.19)">
                        <path d="M7177.08,843.084L7192.88,808.034L7185.13,808.034L7176.03,827.934L7166.88,808.034L7159.13,808.034L7174.98,843.084L7177.08,843.084Z" style="fill-rule:nonzero;"/>
                    </g>
                    <g transform="matrix(2.7279,0,0,3.31244,-18213.4,6124.19)">
                        <path d="M7205.48,808.034L7187.63,843.084L7195.48,843.084L7206.33,821.784L7216.33,843.084L7224.08,843.084L7207.53,808.034L7205.48,808.034Z" style="fill-rule:nonzero;"/>
                    </g>
                    <g transform="matrix(1.1005,0,0,1.33631,-6139.87,7380.75)">
                        <path d="M6775.54,1111.03C6773.04,1133.5 6753.96,1151 6730.82,1151C6707.68,1151 6688.6,1133.5 6686.1,1111.03L6705.28,1111.03C6707.62,1122.99 6718.18,1132.02 6730.82,1132.02C6743.46,1132.02 6754.01,1122.99 6756.36,1111.03L6775.54,1111.03ZM6686.08,1101.12C6688.52,1078.58 6707.63,1061 6730.82,1061C6754.01,1061 6773.12,1078.58 6775.56,1101.12L6756.38,1101.12C6754.1,1089.09 6743.51,1079.98 6730.82,1079.98C6718.12,1079.98 6707.54,1089.09 6705.25,1101.12L6686.08,1101.12Z"/>
                    </g>
                </g>
                <g transform="matrix(0.99012,0,0,0.99012,22.2398,86.1844)">
                    <g opacity="0.5">
                        <g transform="matrix(0.765978,0,0,0.930112,-7462.14,-850.522)">
                            <path d="M10701.2,10450.9L10701.7,10451.1C10714.9,10455.6 10722.6,10462 10722.6,10468.8C10722.6,10472.1 10719.2,10481.7 10708.7,10481.7C10703.1,10481.7 10688.2,10481.7 10674.8,10467.4L10656.4,10484.8C10665.1,10494 10675.2,10500.4 10686.6,10504C10695.6,10506.7 10703.1,10507.1 10708.7,10507.1C10720.1,10507.1 10730.4,10502.3 10737.8,10494C10744.1,10487 10747.9,10477.7 10747.9,10468.8C10747.9,10459.8 10744.5,10451.3 10738,10444C10731.5,10437 10722.1,10431.4 10710,10427.2C10708.9,10426.8 10707.8,10426.5 10706.4,10426.1C10694.8,10423.2 10690.3,10419.6 10690.2,10413.1C10690,10408.9 10691.2,10406.9 10692.3,10405.8C10695.6,10402.4 10701.9,10401.1 10703.5,10401.1C10714.5,10401.1 10719.7,10404.6 10727.9,10409.8L10732.4,10412.7L10745.5,10391.2L10741.4,10388.4C10732.2,10382.5 10721.9,10375.8 10703.5,10375.8C10697,10375.8 10683.5,10378.5 10674.1,10388.3C10667.6,10395.1 10664.4,10404 10664.9,10414.1C10665.4,10426.3 10671,10436.1 10681.1,10442.8C10688.4,10447.7 10696.1,10449.6 10700.3,10450.7L10701.2,10450.9Z" style="fill-rule:nonzero;"/>
                        </g>
                        <g transform="matrix(0.765978,0,0,0.930112,-7455.24,-850.522)">
                            <path d="M10870.7,10377.6L10870.7,10504.5L10895.9,10504.5L10895.9,10453.8L10911.6,10453.8C10932.5,10453.8 10949.5,10436.8 10949.5,10415.8C10949.5,10394.8 10932.5,10377.6 10911.6,10377.6L10870.7,10377.6ZM10895.9,10428.5L10895.9,10402.9L10911.6,10402.9C10918.5,10402.9 10924.2,10408.7 10924.2,10415.8C10924.2,10422.8 10918.5,10428.5 10911.6,10428.5L10895.9,10428.5Z" style="fill-rule:nonzero;"/>
                        </g>
                        <g transform="matrix(0.765978,0,0,0.930112,-7455.24,-850.522)">
                            <path d="M11053.6,10377.6L10969.3,10377.6L10969.3,10504.5L11053,10504.5L11053,10479.2L10994.6,10479.2L10994.6,10451.6L11043.3,10451.6L11043.3,10426.3L10994.6,10426.3L10994.6,10402.9L11053.6,10402.9L11053.6,10377.6Z" style="fill-rule:nonzero;"/>
                        </g>
                        <g transform="matrix(0.765978,0,0,0.930112,-7455.24,-850.522)">
                            <path d="M11163.6,10504.5L11138.5,10450.2C11151.7,10444.2 11160.7,10431 11160.7,10415.6C11160.7,10394.6 11143.8,10377.4 11122.8,10377.4L11075.2,10377.4L11075.2,10504.3L11100.5,10504.3L11100.5,10453.6L11113.1,10453.6L11136.7,10504.5L11163.6,10504.5ZM11122.8,10402.7C11129.9,10402.7 11135.5,10408.5 11135.5,10415.6C11135.5,10422.7 11129.9,10428.3 11122.8,10428.3L11100.5,10428.3L11100.5,10402.7L11122.8,10402.7Z" style="fill-rule:nonzero;"/>
                        </g>
                        <g transform="matrix(0.765978,0,0,0.930112,-7746.6,-642)">
                            <path d="M11174.2,10281.9C11150.8,10278.3 11132.9,10258 11132.7,10233.6L11132.7,10153.4L11158,10153.4L11158,10233.4C11158,10239.8 11160.5,10245.7 11165,10250.3C11167.6,10252.9 11170.8,10254.8 11174.2,10255.9L11174.2,10281.9ZM11189.2,10256C11192.6,10254.9 11195.7,10252.9 11198.4,10250.3C11202.9,10245.7 11205.2,10239.9 11205.4,10233.6L11205.2,10153.4L11230.5,10153.4L11230.7,10233.4C11230.7,10258 11212.6,10278.4 11189.2,10281.9L11189.2,10256Z" style="fill-rule:nonzero;"/>
                        </g>
                    </g>
                </g>
            </g>
        </g>
    </g>
</svg>
