<?xml version="1.0" encoding="UTF-8" standalone="no"?>
<!DOCTYPE svg PUBLIC "-//W3C//DTD SVG 1.1//EN" "http://www.w3.org/Graphics/SVG/1.1/DTD/svg11.dtd">
<svg width="100%" height="100%" viewBox="0 0 1017 133" version="1.1" xmlns="http://www.w3.org/2000/svg" xmlns:xlink="http://www.w3.org/1999/xlink" xml:space="preserve" xmlns:serif="http://www.serif.com/" style="fill-rule:evenodd;clip-rule:evenodd;stroke-linejoin:round;stroke-miterlimit:2;">
    <g transform="matrix(1,0,0,1,-11051,-10377)">
        <g transform="matrix(1.30552,0,0,1.07514,10113.4,690.24)">
            <g id="supernova-logo">
                <g transform="matrix(1.00537,0,0,1.00537,-4.50558,165.204)">
                    <g transform="matrix(2.7279,0,0,3.31244,-18213.4,6124.19)">
                        <path d="M7115.23,843.084L7095.53,822.634L7095.53,843.084L7088.53,843.084L7088.53,808.034L7090.73,808.034L7110.08,827.634L7110.08,808.034L7117.08,808.034L7117.08,843.084L7115.23,843.084Z" style="fill-rule:nonzero;"/>
                    </g>
                    <g transform="matrix(2.7279,0,0,3.31244,-18213.4,6124.19)">
                        <path d="M7177.08,843.084L7192.88,808.034L7185.13,808.034L7176.03,827.934L7166.88,808.034L7159.13,808.034L7174.98,843.084L7177.08,843.084Z" style="fill-rule:nonzero;"/>
                    </g>
                    <g transform="matrix(2.7279,0,0,3.31244,-18213.4,6124.19)">
                        <path d="M7205.48,808.034L7187.63,843.084L7195.48,843.084L7206.33,821.784L7216.33,843.084L7224.08,843.084L7207.53,808.034L7205.48,808.034Z" style="fill-rule:nonzero;"/>
                    </g>
                    <g transform="matrix(1.1005,0,0,1.33631,-6139.87,7380.75)">
                        <path d="M6775.54,1111.03C6773.04,1133.5 6753.96,1151 6730.82,1151C6707.68,1151 6688.6,1133.5 6686.1,1111.03L6705.28,1111.03C6707.62,1122.99 6718.18,1132.02 6730.82,1132.02C6743.46,1132.02 6754.01,1122.99 6756.36,1111.03L6775.54,1111.03ZM6686.08,1101.12C6688.52,1078.58 6707.63,1061 6730.82,1061C6754.01,1061 6773.12,1078.58 6775.56,1101.12L6756.38,1101.12C6754.1,1089.09 6743.51,1079.98 6730.82,1079.98C6718.12,1079.98 6707.54,1089.09 6705.25,1101.12L6686.08,1101.12Z"/>
                    </g>
                </g>
                <g opacity="0.5">
                    <g transform="matrix(0.765978,0,0,0.930112,-7389.96,-834.534)">
                        <path d="M10630.8,10659.9L10631.4,10660.1C10644.5,10664.6 10652.3,10670.9 10652.3,10677.8C10652.3,10681.1 10648.9,10690.7 10638.4,10690.7C10632.8,10690.7 10617.8,10690.7 10604.5,10676.4L10586.1,10693.8C10594.8,10703 10604.9,10709.3 10616.2,10713C10625.2,10715.7 10632.8,10716 10638.4,10716C10649.8,10716 10660.1,10711.3 10667.4,10703C10673.8,10695.9 10677.5,10686.7 10677.5,10677.8C10677.5,10668.8 10674.1,10660.3 10667.6,10653C10661.1,10646 10651.8,10640.3 10639.7,10636.2C10638.6,10635.8 10637.5,10635.5 10636.1,10635.1C10624.5,10632.2 10620,10628.6 10619.8,10622.1C10619.6,10617.9 10620.9,10615.9 10622,10614.8C10625.2,10611.4 10631.6,10610.1 10633.2,10610.1C10644.2,10610.1 10649.4,10613.5 10657.5,10618.8L10662,10621.7L10675.2,10600.1L10671.1,10597.4C10661.9,10591.4 10651.6,10584.7 10633.2,10584.7C10626.7,10584.7 10613.2,10587.5 10603.8,10597.2C10597.3,10604.1 10594,10613 10594.6,10623.1C10595.1,10635.3 10600.7,10645.1 10610.8,10651.8C10618,10656.6 10625.8,10658.6 10629.9,10659.7L10630.8,10659.9Z" style="fill-rule:nonzero;"/>
                    </g>
                    <g transform="matrix(0.765978,0,0,0.930112,-7388.34,-834.453)">
                        <path d="M10800.3,10586.6L10800.3,10713.5L10825.6,10713.5L10825.6,10662.8L10841.3,10662.8C10862.2,10662.8 10879.2,10645.8 10879.2,10624.8C10879.2,10603.8 10862.2,10586.6 10841.3,10586.6L10800.3,10586.6ZM10825.6,10637.4L10825.6,10611.9L10841.3,10611.9C10848.1,10611.9 10853.9,10617.7 10853.9,10624.8C10853.9,10631.8 10848.1,10637.4 10841.3,10637.4L10825.6,10637.4Z" style="fill-rule:nonzero;"/>
                    </g>
                    <g transform="matrix(0.765978,0,0,0.930112,-7388.49,-834.453)">
                        <path d="M10983.2,10586.6L10899,10586.6L10899,10713.5L10982.7,10713.5L10982.7,10688.2L10924.3,10688.2L10924.3,10660.6L10973,10660.6L10973,10635.3L10924.3,10635.3L10924.3,10611.9L10983.2,10611.9L10983.2,10586.6Z" style="fill-rule:nonzero;"/>
                    </g>
                    <g transform="matrix(0.765978,0,0,0.930112,-7389.96,-834.453)">
                        <path d="M11093.3,10713.5L11068.2,10659.2C11081.4,10653.2 11090.4,10640 11090.4,10624.6C11090.4,10603.6 11073.4,10586.4 11052.5,10586.4L11004.9,10586.4L11004.9,10713.3L11030.1,10713.3L11030.1,10662.6L11042.8,10662.6L11066.4,10713.5L11093.3,10713.5ZM11052.5,10611.7C11059.5,10611.7 11065.1,10617.5 11065.1,10624.6C11065.1,10631.6 11059.5,10637.3 11052.5,10637.3L11030.1,10637.3L11030.1,10611.7L11052.5,10611.7Z" style="fill-rule:nonzero;"/>
                    </g>
                    <g transform="matrix(0.765978,0,0,0.930112,-7746.6,-642)">
                        <path d="M11194.2,10507.4C11169.8,10504.6 11150.9,10483.9 11150.7,10458.8L11150.7,10378.6L11176,10378.6L11176,10458.6C11176,10464.9 11178.5,10470.9 11183,10475.4C11186.1,10478.6 11190,10480.7 11194.2,10481.7L11194.2,10507.4ZM11205.2,10481.7C11209.4,10480.8 11213.2,10478.6 11216.4,10475.4C11220.9,10470.9 11223.2,10465.1 11223.4,10458.8L11223.2,10458.8L11223.2,10378.6L11248.5,10378.6L11248.5,10458.6L11248.7,10458.6C11248.7,10483.9 11229.5,10504.7 11205.2,10507.4L11205.2,10481.7Z" style="fill-rule:nonzero;"/>
                    </g>
                </g>
            </g>
        </g>
    </g>
</svg>
