<svg xmlns="http://www.w3.org/2000/svg" version="1.1" xmlns:xlink="http://www.w3.org/1999/xlink" xmlns:svgjs="http://svgjs.com/svgjs" width="100%" height="100%"><svg width="100%" height="100%" viewBox="0 0 256 255" version="1.1" xmlns="http://www.w3.org/2000/svg" xmlns:xlink="http://www.w3.org/1999/xlink" xml:space="preserve" xmlns:serif="http://www.serif.com/" style="fill-rule:evenodd;clip-rule:evenodd;stroke-linejoin:round;stroke-miterlimit:2;">
    <g transform="matrix(1,0,0,1,-3244,-19281)">
        <g transform="matrix(0.592507,0,0,1.23578,1356.86,8434.87)">
            <g id="SvgjsG1000">
                <g transform="matrix(1.90431,0,0,0.902593,-3020.3,-8650)">
                    <path d="M3485,19332.1C3485,19318.5 3474.03,19307.4 3460.52,19307.4L3283.48,19307.4C3269.97,19307.4 3259,19318.5 3259,19332.1L3259,19511.2C3259,19524.9 3269.97,19536 3283.48,19536L3460.52,19536C3474.03,19536 3485,19524.9 3485,19511.2L3485,19332.1Z" style="fill:rgb(0,121,107);"></path>
                </g>
                <g transform="matrix(0.447172,0,0,0.2144,3222.17,8794.17)">
                    <path d="M375,199.938L375,663.603C375,687.27 351,703.603 329.333,694.603C267.333,668.603 190.333,645.937 135.667,638.603L125.333,637.27C93,633.27 66.667,603.603 66.667,571.27L66.667,174.938C66.667,134.938 99,102.604 139,102.604L141.333,102.604C204,107.937 296.333,137.271 357.333,170.271C368.333,176.271 375,187.271 375,199.938Z" style="fill:white;fill-rule:nonzero;"></path>
                    <path d="M661,102.604L659,102.604C651,103.271 642.333,104.271 633.333,105.938C592.333,112.604 543.667,126.604 500,143.938C479.333,152.271 460,161.271 443,170.271C432,176.271 425,187.604 425,199.938L425,663.603C425,687.27 449,703.603 470.667,694.603C532.667,668.603 609.667,645.937 664.333,638.603L674.667,637.27C707,633.27 733.333,603.603 733.333,571.27L733.333,174.938C733.333,134.938 701,102.604 661,102.604Z" style="fill:white;fill-rule:nonzero;"></path>
                </g>
            </g>
        </g>
    </g>
</svg><style>@media (prefers-color-scheme: light) { :root { filter: none; } }
</style></svg>