<?xml version="1.0" standalone="no"?>
<!DOCTYPE svg PUBLIC "-//W3C//DTD SVG 20010904//EN"
 "http://www.w3.org/TR/2001/REC-SVG-20010904/DTD/svg10.dtd">
<svg version="1.0" xmlns="http://www.w3.org/2000/svg"
 width="512.000000pt" height="512.000000pt" viewBox="0 0 512.000000 512.000000"
 preserveAspectRatio="xMidYMid meet">
<metadata>
Created by potrace 1.14, written by Peter Selinger 2001-2017
</metadata>
<g transform="translate(0.000000,512.000000) scale(0.100000,-0.100000)"
fill="#000000" stroke="none">
<path d="M430 5094 c-180 -47 -319 -173 -389 -352 l-26 -67 -3 -2083 c-3
-2300 -7 -2144 61 -2281 43 -88 149 -195 238 -238 136 -67 -16 -63 2249 -63
2265 0 2113 -4 2249 63 89 43 195 150 238 238 68 137 64 -19 61 2281 l-3 2083
-26 67 c-70 181 -210 306 -394 353 -88 22 -4170 22 -4255 -1z m920 -981 c266
-42 608 -154 887 -289 114 -55 136 -69 160 -106 l28 -42 3 -1260 c2 -878 0
-1272 -8 -1298 -13 -44 -52 -93 -91 -113 -53 -28 -105 -19 -299 54 -300 113
-611 197 -870 236 -160 24 -243 70 -309 173 -63 99 -61 59 -61 1227 0 615 4
1084 10 1118 25 155 143 278 300 314 59 13 100 11 250 -14z m2656 16 c163 -30
288 -156 314 -316 6 -34 10 -503 10 -1118 0 -1168 2 -1128 -61 -1227 -66 -103
-149 -149 -309 -173 -259 -39 -565 -122 -868 -235 -234 -87 -282 -90 -349 -18
-56 59 -53 -10 -52 1350 0 936 4 1261 12 1286 26 71 85 110 312 207 274 117
695 233 921 254 6 1 37 -4 70 -10z"/>
</g>
</svg>
